<?xml version="1.0" encoding="UTF-8" standalone="no"?>
<!DOCTYPE svg PUBLIC "-//W3C//DTD SVG 1.1//EN" "http://www.w3.org/Graphics/SVG/1.1/DTD/svg11.dtd">
<svg width="100%" height="100%" viewBox="0 0 2269 296" version="1.1" xmlns="http://www.w3.org/2000/svg" xmlns:xlink="http://www.w3.org/1999/xlink" xml:space="preserve" xmlns:serif="http://www.serif.com/" style="fill-rule:evenodd;clip-rule:evenodd;stroke-linejoin:round;stroke-miterlimit:2;">
    <rect id="advanturer-logo-white" x="0" y="0" width="2268.82" height="295.622" style="fill:none;"/>
    <clipPath id="_clip1">
        <rect id="advanturer-logo-white1" serif:id="advanturer-logo-white" x="0" y="0" width="2268.82" height="295.622"/>
    </clipPath>
    <g clip-path="url(#_clip1)">
        <g id="Layer-1" serif:id="Layer 1" transform="matrix(4.16667,0,0,4.16667,-512.711,-1124.93)">
            <g transform="matrix(1,0,0,1,161.932,297.459)">
                <path d="M0,15.878L-3.846,-9.32L-15.295,15.878L0,15.878ZM18.301,42.191L3.547,42.191L1.383,25.734L-19.704,25.734L-27.172,42.191L-38.881,42.191L-6.424,-26.313L7.081,-26.313L18.301,42.191Z" style="fill:white;fill-rule:nonzero;"/>
            </g>
            <g transform="matrix(1,0,0,1,225.508,305.399)">
                <path d="M0,-0.001C2.562,-16.025 -0.671,-24.039 -9.699,-24.039L-15.077,-24.039L-22.778,24.128L-16.151,24.128C-10.817,24.128 -6.784,21.317 -4.05,15.698C-2.521,12.547 -1.17,7.312 0,-0.001M4.198,26.135C0.77,29.851 -2.455,32.217 -5.479,33.227C-7.505,33.91 -10.798,34.252 -15.353,34.252L-38.814,34.252L-27.863,-34.253L-6.818,-34.253C11.047,-34.253 18.153,-22.834 14.505,-0.001C12.572,12.07 9.14,20.783 4.198,26.135" style="fill:white;fill-rule:nonzero;"/>
            </g>
            <g transform="matrix(1,0,0,1,302.879,339.65)">
                <path d="M0,-68.505L-32.625,0L-44.755,0L-54.89,-68.505L-38.76,-68.505L-32.505,-22.657L-11.753,-68.505L0,-68.505Z" style="fill:white;fill-rule:nonzero;"/>
            </g>
            <g transform="matrix(1,0,0,1,330.056,297.459)">
                <path d="M0,15.878L-3.846,-9.32L-15.296,15.878L0,15.878ZM18.299,42.191L3.547,42.191L1.382,25.734L-19.705,25.734L-27.17,42.191L-38.881,42.191L-6.424,-26.313L7.077,-26.313L18.299,42.191Z" style="fill:white;fill-rule:nonzero;"/>
            </g>
            <g transform="matrix(1,0,0,1,460.117,329.436)">
                <path d="M0,-48.077L-13.922,-48.077L-23.243,10.214L-37.661,10.214L-28.34,-48.077L-42.596,-48.077L-40.963,-58.291L1.631,-58.291L0,-48.077Z" style="fill:white;fill-rule:nonzero;"/>
            </g>
            <g transform="matrix(1,0,0,1,506.684,291.751)">
                <path d="M0,28.097C-2.196,41.837 -10.881,48.702 -26.05,48.702C-41.774,48.702 -48.397,40.942 -45.917,25.422L-38.558,-20.605L-24.012,-20.605L-31.677,27.34C-32.301,31.236 -31.922,34.066 -30.535,35.836C-29.153,37.604 -26.64,38.489 -23,38.489C-19.14,38.489 -16.268,37.604 -14.387,35.836C-12.505,34.066 -11.237,31.117 -10.575,26.983L-2.968,-20.605L7.788,-20.605L0,28.097Z" style="fill:white;fill-rule:nonzero;"/>
            </g>
            <g transform="matrix(1,0,0,1,606.876,271.145)">
                <path d="M0,68.505L-38.886,68.505L-27.933,0L10.952,0L9.32,10.214L-15.144,10.214L-18.098,28.679L0.904,28.679L-0.728,38.891L-19.73,38.891L-22.846,58.381L1.619,58.381L0,68.505Z" style="fill:white;fill-rule:nonzero;"/>
            </g>
            <g transform="matrix(1,0,0,1,372.56,339.65)">
                <path d="M0,-68.505L-7.667,-68.505L-18.62,0L-8.367,0L-1.484,-43.039L23.639,0L29.85,0L32.262,-15.087L0,-68.505Z" style="fill:white;fill-rule:nonzero;"/>
            </g>
            <g transform="matrix(0.163243,-0.986586,-0.986586,-0.163243,427.361,296.186)">
                <path d="M-21.914,17.9L22.419,17.9L20.766,27.89L-10.402,27.96L-21.914,17.9Z" style="fill:white;fill-rule:nonzero;"/>
            </g>
            <g transform="matrix(1,0,0,1,667.161,319.758)">
                <path d="M0,-28.721C2.118,-41.981 -4.044,-48.613 -18.492,-48.613L-36.583,-48.613L-21.786,-38.966C-15.915,-38.512 -13.483,-35.1 -14.504,-28.721C-15.69,-21.288 -19.494,-17.574 -25.913,-17.574L-29.747,-17.574L-26.832,-35.804L-39.892,-44.318L-50.157,19.892L-35.738,19.892L-31.294,-7.895L-26.209,-7.895L-20.316,19.892L-4.271,19.892L-12.537,-10.524C-5.524,-14.241 -1.345,-20.307 0,-28.721" style="fill:white;fill-rule:nonzero;"/>
            </g>
            <g transform="matrix(1,0,0,1,565.218,319.758)">
                <path d="M0,-28.721C2.12,-41.981 -4.044,-48.613 -18.492,-48.613L-36.582,-48.613L-21.786,-38.966C-15.913,-38.512 -13.481,-35.1 -14.503,-28.721C-15.69,-21.288 -19.494,-17.574 -25.911,-17.574L-29.747,-17.574L-26.831,-35.804L-39.892,-44.318L-50.157,19.892L-35.736,19.892L-31.294,-7.895L-26.209,-7.895L-20.315,19.892L-4.271,19.892L-12.536,-10.524C-5.524,-14.241 -1.345,-20.307 0,-28.721" style="fill:white;fill-rule:nonzero;"/>
            </g>
        </g>
    </g>
</svg>
