<?xml version="1.0" encoding="UTF-8" standalone="no"?>
<!DOCTYPE svg PUBLIC "-//W3C//DTD SVG 1.1//EN" "http://www.w3.org/Graphics/SVG/1.1/DTD/svg11.dtd">
<svg width="100%" height="100%" viewBox="0 0 824 1224" version="1.1" xmlns="http://www.w3.org/2000/svg" xmlns:xlink="http://www.w3.org/1999/xlink" xml:space="preserve" xmlns:serif="http://www.serif.com/" style="fill-rule:evenodd;clip-rule:evenodd;stroke-linejoin:round;stroke-miterlimit:2;">
    <rect id="Artboard1" x="0" y="0" width="823.871" height="1223.5" style="fill:none;"/>
    <g id="Artboard11" serif:id="Artboard1">
        <g id="Layer-1" serif:id="Layer 1" transform="matrix(4.16667,0,0,4.16667,-1186.33,-743.167)">
            <g transform="matrix(-1,0,0,1,767.169,38.36)">
                <rect x="284.72" y="140" width="197.729" height="293.64" style="fill:rgb(35,31,32);"/>
            </g>
            <g transform="matrix(1,0,0,1,369.353,355.861)">
                <path d="M0,-144.55L37.474,-144.55L52.039,-93.152L39.402,-60.387L55.679,-60.387L61.462,-76.024L88.871,0L32.98,0L49.679,-45.184L33.621,-45.184L16.917,0L-60.818,0L0,-144.55Z" style="fill:white;fill-rule:nonzero;"/>
            </g>
            <g transform="matrix(-1,0,0,1,767.366,172.866)">
                <rect x="295.091" y="214.679" width="177.184" height="9.776" style="fill:white;"/>
            </g>
            <g transform="matrix(1,0,0,1,308.553,419.134)">
                <path d="M0,5.056L-1.225,-2.971L-4.873,5.056L0,5.056ZM5.83,13.439L1.13,13.439L0.441,8.196L-6.276,8.196L-8.655,13.439L-12.385,13.439L-2.046,-8.383L2.256,-8.383L5.83,13.439Z" style="fill:white;fill-rule:nonzero;"/>
            </g>
            <g transform="matrix(1,0,0,1,328.805,421.661)">
                <path d="M0,0C0.816,-5.105 -0.213,-7.658 -3.089,-7.658L-4.803,-7.658L-7.256,7.687L-5.145,7.687C-3.445,7.687 -2.162,6.791 -1.29,5.001C-0.803,3.997 -0.373,2.329 0,0M1.337,8.325C0.245,9.509 -0.782,10.263 -1.745,10.585C-2.391,10.802 -3.439,10.911 -4.891,10.911L-12.364,10.911L-8.875,-10.911L-2.172,-10.911C3.52,-10.911 5.783,-7.274 4.621,0C4.005,3.845 2.912,6.62 1.337,8.325" style="fill:white;fill-rule:nonzero;"/>
            </g>
            <g transform="matrix(1,0,0,1,353.451,432.572)">
                <path d="M0,-21.822L-10.393,0L-14.257,0L-17.485,-21.822L-12.347,-21.822L-10.354,-7.218L-3.744,-21.822L0,-21.822Z" style="fill:white;fill-rule:nonzero;"/>
            </g>
            <g transform="matrix(1,0,0,1,362.109,419.134)">
                <path d="M0,5.056L-1.225,-2.971L-4.873,5.056L0,5.056ZM5.829,13.439L1.129,13.439L0.44,8.196L-6.278,8.196L-8.655,13.439L-12.386,13.439L-2.047,-8.383L2.254,-8.383L5.829,13.439Z" style="fill:white;fill-rule:nonzero;"/>
            </g>
            <g transform="matrix(1,0,0,1,403.539,429.319)">
                <path d="M0,-15.316L-4.434,-15.316L-7.404,3.253L-11.996,3.253L-9.027,-15.316L-13.568,-15.316L-13.048,-18.569L0.521,-18.569L0,-15.316Z" style="fill:white;fill-rule:nonzero;"/>
            </g>
            <g transform="matrix(1,0,0,1,418.374,417.314)">
                <path d="M0,8.95C-0.7,13.327 -3.467,15.514 -8.299,15.514C-13.309,15.514 -15.418,13.042 -14.628,8.097L-12.283,-6.564L-7.649,-6.564L-10.091,8.709C-10.29,9.95 -10.17,10.852 -9.728,11.415C-9.287,11.978 -8.486,12.261 -7.328,12.261C-6.098,12.261 -5.183,11.978 -4.583,11.415C-3.983,10.852 -3.58,9.912 -3.37,8.596L-0.946,-6.564L2.479,-6.564L0,8.95Z" style="fill:white;fill-rule:nonzero;"/>
            </g>
            <g transform="matrix(1,0,0,1,450.29,410.75)">
                <path d="M0,21.822L-12.388,21.822L-8.897,0L3.488,0L2.969,3.253L-4.824,3.253L-5.766,9.135L0.287,9.135L-0.232,12.388L-6.285,12.388L-7.278,18.597L0.516,18.597L0,21.822Z" style="fill:white;fill-rule:nonzero;"/>
            </g>
            <g transform="matrix(1,0,0,1,375.649,432.572)">
                <path d="M0,-21.822L-2.443,-21.822L-5.932,0L-2.667,0L-0.474,-13.71L7.53,0L9.508,0L10.276,-4.805L0,-21.822Z" style="fill:white;fill-rule:nonzero;"/>
            </g>
            <g transform="matrix(0.163216,-0.98659,-0.98659,-0.163216,393.105,418.726)">
                <path d="M-6.981,5.702L7.141,5.702L6.615,8.884L-3.313,8.907L-6.981,5.702Z" style="fill:white;fill-rule:nonzero;"/>
            </g>
            <g transform="matrix(1,0,0,1,469.494,426.235)">
                <path d="M0,-9.148C0.675,-13.373 -1.289,-15.485 -5.892,-15.485L-11.654,-15.485L-6.94,-12.413C-5.07,-12.268 -4.296,-11.181 -4.62,-9.148C-4.999,-6.781 -6.211,-5.597 -8.255,-5.597L-9.477,-5.597L-8.548,-11.405L-12.708,-14.117L-15.979,6.337L-11.385,6.337L-9.97,-2.515L-8.35,-2.515L-6.473,6.337L-1.361,6.337L-3.994,-3.352C-1.761,-4.536 -0.429,-6.468 0,-9.148" style="fill:white;fill-rule:nonzero;"/>
            </g>
            <g transform="matrix(1,0,0,1,437.019,426.235)">
                <path d="M0,-9.148C0.676,-13.373 -1.288,-15.485 -5.891,-15.485L-11.653,-15.485L-6.94,-12.413C-5.069,-12.268 -4.295,-11.181 -4.62,-9.148C-4.998,-6.781 -6.21,-5.597 -8.254,-5.597L-9.476,-5.597L-8.547,-11.405L-12.707,-14.117L-15.978,6.337L-11.384,6.337L-9.97,-2.515L-8.35,-2.515L-6.472,6.337L-1.36,6.337L-3.993,-3.352C-1.76,-4.536 -0.429,-6.468 0,-9.148" style="fill:white;fill-rule:nonzero;"/>
            </g>
        </g>
    </g>
</svg>
